<?xml version="1.0" standalone="no"?>
<!DOCTYPE svg PUBLIC "-//W3C//DTD SVG 20010904//EN"
 "http://www.w3.org/TR/2001/REC-SVG-20010904/DTD/svg10.dtd">
<svg version="1.0" xmlns="http://www.w3.org/2000/svg"
 width="50.000000pt" height="50.000000pt" viewBox="0 0 50.000000 50.000000"
 preserveAspectRatio="xMidYMid meet">

<g transform="translate(0.000000,50.000000) scale(0.100000,-0.100000)"
fill="#000000" stroke="none">
<path d="M216 484 c-31 -30 -9 -84 34 -84 24 0 50 26 50 50 0 24 -26 50 -50
50 -10 0 -26 -7 -34 -16z"/>
<path d="M170 345 c-18 -26 -39 -45 -50 -45 -43 0 -65 -54 -34 -84 36 -37 90
-5 80 48 -4 19 -1 39 7 51 39 57 48 75 39 75 -6 0 -25 -20 -42 -45z"/>
<path d="M295 363 c10 -16 24 -37 32 -48 8 -12 11 -32 7 -51 -10 -53 44 -85
80 -48 31 30 9 84 -34 84 -11 0 -32 19 -50 45 -33 48 -64 64 -35 18z"/>
<path d="M87 183 c-2 -4 -10 -24 -16 -45 -8 -24 -19 -38 -36 -42 -42 -11 -45
-78 -4 -91 46 -15 88 35 59 70 -10 12 -10 24 0 60 11 41 10 70 -3 48z"/>
<path d="M140 178 c0 -8 5 -30 11 -47 9 -25 9 -38 -1 -56 -23 -44 12 -85 59
-70 41 13 38 80 -4 91 -17 4 -28 17 -36 42 -13 42 -29 64 -29 40z"/>
<path d="M347 183 c-2 -4 -10 -24 -16 -45 -8 -24 -19 -38 -36 -42 -42 -11 -45
-78 -4 -91 46 -15 88 35 59 70 -10 12 -10 24 0 60 11 41 10 70 -3 48z"/>
<path d="M400 178 c0 -8 5 -30 11 -47 9 -25 9 -38 -1 -56 -23 -44 12 -85 59
-70 41 13 38 80 -4 91 -17 4 -28 17 -36 42 -13 42 -29 64 -29 40z"/>
</g>
</svg>
